<svg width="200" height="174" viewBox="0 0 200 174" fill="none" xmlns="http://www.w3.org/2000/svg">
<path id="&#226;&#128;&#156;" opacity="0.1" d="M78.7018 135.031C78.7018 145.812 74.9155 154.841 67.3428 162.118C59.7701 169.395 50.3043 173.034 38.9452 173.034C28.1271 173.034 18.9317 168.856 11.359 160.501C3.78634 152.146 0 141.634 0 128.967C0 119.803 2.0284 109.696 6.08519 98.6454C10.4124 87.5949 15.9567 76.4097 22.7181 65.0898C29.7498 53.7698 37.593 42.5846 46.2475 31.5342C55.1724 20.2142 64.0974 9.70282 73.0223 0L83.9757 8.89426C71.8053 23.179 61.6633 37.5984 53.5497 52.1527C45.4361 66.7069 40.568 80.9916 38.9452 95.0068C49.7634 95.8154 59.094 99.8582 66.9371 107.135C74.7803 114.412 78.7018 123.711 78.7018 135.031ZM195.132 135.031C195.132 145.812 191.346 154.841 183.773 162.118C176.2 169.395 166.734 173.034 155.375 173.034C144.557 173.034 135.362 168.856 127.789 160.501C120.216 152.146 116.43 141.634 116.43 128.967C116.43 119.803 118.458 109.696 122.515 98.6454C126.842 87.5949 132.387 76.4097 139.148 65.0898C146.18 53.7698 154.023 42.5846 162.677 31.5342C171.602 20.2142 180.527 9.70282 189.452 0L200 8.89426C187.83 23.179 177.688 37.5984 169.574 52.1527C161.731 66.7069 156.998 80.9916 155.375 95.0068C166.193 95.8154 175.524 99.8582 183.367 107.135C191.21 114.412 195.132 123.711 195.132 135.031Z" fill="#A64716"/>
</svg>
