<svg width="95" height="95" viewBox="0 0 95 95" fill="none" xmlns="http://www.w3.org/2000/svg">
<rect width="95" height="95" rx="47.5" fill="#A64716"/>
<path d="M36.5038 51.036V52.5H31.3378V43.794H33.1378V51.036H36.5038ZM45.7498 48.144C45.7498 48.78 45.6418 49.37 45.4258 49.914C45.2138 50.458 44.9118 50.928 44.5198 51.324C44.1318 51.72 43.6638 52.032 43.1158 52.26C42.5678 52.484 41.9598 52.596 41.2918 52.596C40.6238 52.596 40.0158 52.484 39.4678 52.26C38.9198 52.032 38.4498 51.72 38.0578 51.324C37.6658 50.928 37.3618 50.458 37.1458 49.914C36.9338 49.37 36.8278 48.78 36.8278 48.144C36.8278 47.508 36.9338 46.92 37.1458 46.38C37.3618 45.836 37.6658 45.366 38.0578 44.97C38.4498 44.574 38.9198 44.264 39.4678 44.04C40.0158 43.812 40.6238 43.698 41.2918 43.698C41.9598 43.698 42.5678 43.812 43.1158 44.04C43.6638 44.264 44.1318 44.576 44.5198 44.976C44.9118 45.372 45.2138 45.842 45.4258 46.386C45.6418 46.926 45.7498 47.512 45.7498 48.144ZM43.9078 48.144C43.9078 47.688 43.8478 47.28 43.7278 46.92C43.6078 46.556 43.4338 46.248 43.2058 45.996C42.9818 45.74 42.7078 45.546 42.3838 45.414C42.0638 45.278 41.6998 45.21 41.2918 45.21C40.8838 45.21 40.5178 45.278 40.1938 45.414C39.8698 45.546 39.5938 45.74 39.3658 45.996C39.1418 46.248 38.9698 46.556 38.8498 46.92C38.7298 47.28 38.6698 47.688 38.6698 48.144C38.6698 48.604 38.7298 49.016 38.8498 49.38C38.9698 49.74 39.1418 50.046 39.3658 50.298C39.5938 50.55 39.8698 50.744 40.1938 50.88C40.5178 51.012 40.8838 51.078 41.2918 51.078C41.6998 51.078 42.0638 51.012 42.3838 50.88C42.7078 50.744 42.9818 50.55 43.2058 50.298C43.4338 50.046 43.6078 49.74 43.7278 49.38C43.8478 49.016 43.9078 48.604 43.9078 48.144ZM51.3003 48.066H54.2883V51.66C53.8443 51.984 53.3703 52.222 52.8663 52.374C52.3663 52.522 51.8363 52.596 51.2763 52.596C50.5603 52.596 49.9123 52.486 49.3323 52.266C48.7523 52.042 48.2563 51.732 47.8443 51.336C47.4323 50.94 47.1143 50.47 46.8903 49.926C46.6663 49.382 46.5543 48.788 46.5543 48.144C46.5543 47.492 46.6603 46.894 46.8723 46.35C47.0883 45.806 47.3943 45.338 47.7903 44.946C48.1863 44.554 48.6643 44.248 49.2243 44.028C49.7883 43.808 50.4183 43.698 51.1143 43.698C51.4743 43.698 51.8103 43.728 52.1223 43.788C52.4343 43.844 52.7223 43.924 52.9863 44.028C53.2503 44.128 53.4923 44.248 53.7123 44.388C53.9323 44.528 54.1323 44.682 54.3123 44.85L53.7903 45.654C53.7103 45.782 53.6063 45.86 53.4783 45.888C53.3503 45.916 53.2103 45.884 53.0583 45.792C52.9143 45.704 52.7723 45.626 52.6323 45.558C52.4963 45.486 52.3503 45.424 52.1943 45.372C52.0383 45.32 51.8683 45.28 51.6843 45.252C51.5003 45.224 51.2883 45.21 51.0483 45.21C50.6443 45.21 50.2783 45.28 49.9503 45.42C49.6223 45.56 49.3423 45.758 49.1103 46.014C48.8823 46.27 48.7063 46.578 48.5823 46.938C48.4583 47.298 48.3963 47.7 48.3963 48.144C48.3963 48.624 48.4643 49.054 48.6003 49.434C48.7363 49.81 48.9283 50.128 49.1763 50.388C49.4243 50.648 49.7203 50.846 50.0643 50.982C50.4123 51.118 50.7983 51.186 51.2223 51.186C51.5103 51.186 51.7663 51.158 51.9903 51.102C52.2183 51.042 52.4403 50.962 52.6563 50.862V49.398H51.6723C51.5563 49.398 51.4643 49.368 51.3963 49.308C51.3323 49.244 51.3003 49.164 51.3003 49.068V48.066ZM64.1717 48.144C64.1717 48.78 64.0637 49.37 63.8477 49.914C63.6357 50.458 63.3337 50.928 62.9417 51.324C62.5537 51.72 62.0857 52.032 61.5377 52.26C60.9897 52.484 60.3817 52.596 59.7137 52.596C59.0457 52.596 58.4377 52.484 57.8897 52.26C57.3417 52.032 56.8717 51.72 56.4797 51.324C56.0877 50.928 55.7837 50.458 55.5677 49.914C55.3557 49.37 55.2497 48.78 55.2497 48.144C55.2497 47.508 55.3557 46.92 55.5677 46.38C55.7837 45.836 56.0877 45.366 56.4797 44.97C56.8717 44.574 57.3417 44.264 57.8897 44.04C58.4377 43.812 59.0457 43.698 59.7137 43.698C60.3817 43.698 60.9897 43.812 61.5377 44.04C62.0857 44.264 62.5537 44.576 62.9417 44.976C63.3337 45.372 63.6357 45.842 63.8477 46.386C64.0637 46.926 64.1717 47.512 64.1717 48.144ZM62.3297 48.144C62.3297 47.688 62.2697 47.28 62.1497 46.92C62.0297 46.556 61.8557 46.248 61.6277 45.996C61.4037 45.74 61.1297 45.546 60.8057 45.414C60.4857 45.278 60.1217 45.21 59.7137 45.21C59.3057 45.21 58.9397 45.278 58.6157 45.414C58.2917 45.546 58.0157 45.74 57.7877 45.996C57.5637 46.248 57.3917 46.556 57.2717 46.92C57.1517 47.28 57.0917 47.688 57.0917 48.144C57.0917 48.604 57.1517 49.016 57.2717 49.38C57.3917 49.74 57.5637 50.046 57.7877 50.298C58.0157 50.55 58.2917 50.744 58.6157 50.88C58.9397 51.012 59.3057 51.078 59.7137 51.078C60.1217 51.078 60.4857 51.012 60.8057 50.88C61.1297 50.744 61.4037 50.55 61.6277 50.298C61.8557 50.046 62.0297 49.74 62.1497 49.38C62.2697 49.016 62.3297 48.604 62.3297 48.144Z" fill="#FFE8BE"/>
</svg>
