<svg width="65" height="63" viewBox="0 0 65 63" fill="none" xmlns="http://www.w3.org/2000/svg">
<g id="Group">
<path id="Vector" d="M5.37125 22.9249C5.31375 22.9787 5.25625 23.0349 5.2 23.0912C2.6925 25.5999 1.4375 28.8874 1.4375 32.1749C1.4375 35.4624 2.6925 38.7499 5.2 41.2587L22.9463 59.0049C23.435 59.4924 24.2263 59.4924 24.7138 59.0049L42.4613 41.2587C44.15 39.5687 45.2712 37.5262 45.8225 35.3674" stroke="#A64716" stroke-miterlimit="10" stroke-linecap="round" stroke-linejoin="round"/>
<path id="Vector_2" d="M9.13751 20.3998C13.84 18.3473 19.52 19.2448 23.3675 23.0911L23.83 23.5548L24.2938 23.0911C28.2475 19.1386 34.1363 18.2998 38.91 20.5773" stroke="#A64716" stroke-miterlimit="10" stroke-linecap="round" stroke-linejoin="round"/>
<path id="Vector_3" d="M27.6187 50.6124L23.83 54.4011L7.94373 38.5149C6.13873 36.7099 5.19873 34.2711 5.32998 31.6999C5.43498 29.6611 6.24248 27.7061 7.60873 26.1886C9.33373 24.2724 11.7262 23.2086 14.2837 23.2086C16.6787 23.2086 18.93 24.1424 20.6237 25.8349L23.83 29.0424L27.0375 25.8349C28.7312 24.1424 30.9825 23.2086 33.3775 23.2086C35.255 23.2086 37.0462 23.7824 38.5475 24.8474" stroke="#A64716" stroke-miterlimit="10" stroke-linecap="round" stroke-linejoin="round"/>
<path id="Vector_4" d="M30.7238 47.5087L39.7175 38.5149C41.2238 37.0074 42.1275 35.0599 42.3088 32.9612" stroke="#A64716" stroke-miterlimit="10" stroke-linecap="round" stroke-linejoin="round"/>
<path id="Vector_5" d="M25.7746 17.4833C26.7471 18.0727 27.4308 19.0908 27.5635 20.2755" stroke="#A64716" stroke-miterlimit="10" stroke-linecap="round" stroke-linejoin="round"/>
<path id="Vector_6" d="M20.0972 20.2755C20.2299 19.0911 20.9132 18.0733 21.8852 17.4838" stroke="#A64716" stroke-miterlimit="10" stroke-linecap="round" stroke-linejoin="round"/>
<path id="Vector_7" d="M17.011 31.8988H19.4956V43.5236" stroke="#A64716" stroke-miterlimit="10" stroke-linecap="round" stroke-linejoin="round"/>
<path id="Vector_8" d="M30.6497 39.8269H23.8837C23.5454 39.8269 23.3336 39.461 23.502 39.1676L27.5214 32.1655C27.6726 31.902 27.9532 31.7395 28.2571 31.7395C28.7256 31.7395 29.1055 32.1194 29.1055 32.5879V43.3643" stroke="#A64716" stroke-miterlimit="10" stroke-linecap="round" stroke-linejoin="round"/>
<path id="Vector_9" d="M54.8025 47.8211V35.7999C57.93 34.8311 60.5312 32.6624 62.065 29.8324" stroke="#A64716" stroke-miterlimit="10" stroke-linecap="round" stroke-linejoin="round"/>
<path id="Vector_10" d="M52.3262 11.5249C58.6325 12.1324 63.5625 17.4462 63.5625 23.9112C63.5625 24.5037 63.5212 25.0874 63.4412 25.6587" stroke="#A64716" stroke-miterlimit="10" stroke-linecap="round" stroke-linejoin="round"/>
<path id="Vector_11" d="M54.8025 52.1961V62.1999H50.185L43.9337 56.9449V54.3486L47.435 51.4061L43.9337 48.4624V45.8661L47.435 42.9224V35.7999C42.4187 34.2761 38.675 29.4999 38.675 23.9111C38.675 18.0236 42.7637 13.0911 48.2575 11.7974" stroke="#A64716" stroke-miterlimit="10" stroke-linecap="round" stroke-linejoin="round"/>
<path id="Vector_12" d="M53.0641 17.4838C54.1501 18.1423 54.8757 19.3356 54.8757 20.6984C54.8757 22.7731 53.1939 24.4551 51.119 24.4551C49.0442 24.4551 47.3622 22.7733 47.3622 20.6984C47.3622 19.3525 48.07 18.172 49.1335 17.5086" stroke="#A64716" stroke-miterlimit="10" stroke-linecap="round" stroke-linejoin="round"/>
<path id="Vector_13" d="M50.9339 61.9855V55.333" stroke="#A64716" stroke-miterlimit="10" stroke-linecap="round" stroke-linejoin="round"/>
<path id="Vector_14" d="M50.9339 49.2752V45.0527" stroke="#A64716" stroke-miterlimit="10" stroke-linecap="round" stroke-linejoin="round"/>
<path id="Vector_15" d="M51.119 19.2104C50.187 19.2104 49.4315 18.4549 49.4315 17.5229V16.3317C49.4315 9.73875 44.0678 4.375 37.4748 4.375C30.8818 4.375 25.518 9.73875 25.518 16.3317V17.5229C25.518 18.4549 24.7625 19.2104 23.8305 19.2104C22.8985 19.2104 22.143 18.4549 22.143 17.5229V16.3317C22.143 7.87775 29.0208 1 37.4748 1C45.9288 1 52.8065 7.87775 52.8065 16.3317V17.5229C52.8065 18.4549 52.051 19.2104 51.119 19.2104Z" stroke="#A64716" stroke-miterlimit="10" stroke-linecap="round" stroke-linejoin="round"/>
</g>
</svg>
